<svg width="292.36167659227925" height="296.13281249999994" viewBox="0 0 100 101.28988722177148" class="css-1j8o68f">
    <defs id="SvgjsDefs2433">
        <linearGradient id="SvgjsLinearGradient2436">
            <stop id="SvgjsStop2437" stop-color="#fbb040" offset="0"></stop>
            <stop id="SvgjsStop2438" stop-color="#f9ed32" offset="1"></stop>
        </linearGradient>
    </defs>
    <g id="SvgjsG2434" featurekey="nameFeature-0"
       transform="matrix(3.0074194270777883,0,0,3.0074194270777883,9.244609064384914,-48.35931563035761)"
       fill="url(#SvgjsLinearGradient2436)">
        <path d="M4.4 29.96 c-1.48 0.88 -2.12 1.96 -1.88 2.96 c0.2 0.8 0.88 2.28 1.48 4.08 c1.6 -1.28 3.08 -2.24 4.6 -2.92 c0.12 -0.08 0.6 -0.16 0.76 -0.12 c0.32 0.12 -0.08 0.28 -0.32 0.4 c-1.32 0.52 -3 1.8 -4.8 3.4 c0.48 1.6 0.88 3.36 0.88 5.2 c0 4.24 -3.56 6.8 -5.88 6.8 c-3.28 0 -3.44 -4.76 1.92 -10.12 c0.76 -0.76 1.48 -1.44 2.16 -2.04 c-0.52 -1.56 -1.16 -3.04 -1.44 -4.2 c-0.6 -2.2 0.84 -3.92 2.04 -4.04 c0.92 -0.12 0.88 0.4 0.48 0.6 z M4.4 42.44 c0 -1.32 -0.36 -2.72 -0.8 -4.08 l-1.72 1.68 c-4.84 4.88 -4.76 9.04 -3.04 9.04 c2.56 0 5.56 -2.96 5.56 -6.64 z M22.852 32.519999999999996 c-0.2 0 -0.32 -0.16 -0.4 -0.16 s-2.32 1.16 -3.64 1.92 c-0.84 0.52 -1.76 1.04 -2.24 1.48 c-0.08 0.28 -0.12 0.56 -0.16 0.84 c0.76 0.28 3.16 0.16 4.96 0 c2.52 -0.24 5.8 -0.76 8.4 -1.4 c0.6 -0.12 0.44 0.6 0.12 0.68 c-2.2 0.72 -5.84 1.24 -8.48 1.52 c-2.08 0.2 -3.96 0.24 -5.16 0.08 l-0.4 2.28 c-0.6 3.64 -0.24 4.72 -0.68 4.72 c-0.48 0 -0.4 -1.96 -0.08 -4.96 c0.08 -0.72 0.16 -1.44 0.28 -2.2 c-0.36 -0.12 -0.56 -0.28 -0.64 -0.44 c-0.12 -0.36 0.12 -0.88 0.96 -1.6 c0.32 -2.08 0.84 -4.72 1.72 -8.44 c1.96 -8.64 2.92 -10.76 3.6 -10.76 c0.32 0 0.44 0.92 0.32 1.28 c-0.12 0.48 -0.64 1.32 -1.08 2.28 c-0.12 0.2 -1.16 4.16 -1.92 7.72 c-0.56 2.48 -1.04 4.88 -1.48 7.04 c0.2 -0.16 0.44 -0.32 0.72 -0.48 c2.08 -1.36 4.92 -2.68 5.16 -2.68 c0.28 0 0.6 0.48 0.6 0.68 s-0.16 0.6 -0.48 0.6 z"></path>
    </g>
</svg>